<svg width="1919" height="2284" xmlns="http://www.w3.org/2000/svg" xmlns:xlink="http://www.w3.org/1999/xlink" xml:space="preserve" overflow="hidden"><defs><clipPath id="clip0"><rect x="1236" y="90" width="1919" height="2284"/></clipPath></defs><g clip-path="url(#clip0)" transform="translate(-1236 -90)"><path d="M1397 170.334C1397 142.535 1419.54 120 1447.33 120L2039.67 120C2067.46 120 2090 142.535 2090 170.334L2090 371.666C2090 399.465 2067.46 422 2039.67 422L1447.33 422C1419.54 422 1397 399.465 1397 371.666Z" fill="#FE6100" fill-rule="evenodd"/><text fill="#FFFFFF" font-family="Calibri,Calibri_MSFontService,sans-serif" font-weight="400" font-size="83" transform="matrix(1 0 0 1 1602.93 233)">Dataset:</text><text fill="#FFFFFF" font-family="Calibri,Calibri_MSFontService,sans-serif" font-weight="400" font-size="55" transform="matrix(1 0 0 1 1499.23 306)">Torch</text><text fill="#FFFFFF" font-family="Calibri,Calibri_MSFontService,sans-serif" font-weight="400" font-size="55" transform="matrix(1 0 0 1 1639.02 306)">dataset</text><text fill="#FFFFFF" font-family="Calibri,Calibri_MSFontService,sans-serif" font-weight="400" font-size="55" transform="matrix(1 0 0 1 1806.31 306)">, </text><text fill="#FFFFFF" font-family="Calibri,Calibri_MSFontService,sans-serif" font-weight="400" font-size="55" transform="matrix(1 0 0 1 1832.67 306)">numpy</text><text fill="#FFFFFF" font-family="Calibri,Calibri_MSFontService,sans-serif" font-weight="400" font-size="55" transform="matrix(1 0 0 1 1570 372)">array, or</text><text fill="#FFFFFF" font-family="Calibri,Calibri_MSFontService,sans-serif" font-weight="400" font-size="55" transform="matrix(1 0 0 1 1772.24 372)">tenso</text><text fill="#FFFFFF" font-family="Calibri,Calibri_MSFontService,sans-serif" font-weight="400" font-size="55" transform="matrix(1 0 0 1 1897.7 372)">r</text><path d="M2090 265.844 2336.03 265.844 2336.03 276.156 2090 276.156ZM2330.88 255.531 2361.82 271 2330.88 286.469Z" fill="#648FFF"/><path d="M2362 90.0001 3094.67 90.0001 3155 150.335 3155 452 3155 452 2422.33 452 2362 391.666 2362 90.0001Z" fill="#DC267F" fill-rule="evenodd"/><text fill="#FFFFFF" font-family="Calibri,Calibri_MSFontService,sans-serif" font-weight="400" font-size="83" transform="matrix(1 0 0 1 2459.11 200)">Torch </text><text fill="#FFFFFF" font-family="Calibri,Calibri_MSFontService,sans-serif" font-weight="400" font-size="83" transform="matrix(1 0 0 1 2668.8 200)">DataLoader</text><text fill="#FFFFFF" font-family="Calibri,Calibri_MSFontService,sans-serif" font-weight="400" font-size="55" transform="matrix(1 0 0 1 2593.75 273)">-</text><text fill="#FFFFFF" font-family="Calibri,Calibri_MSFontService,sans-serif" font-weight="400" font-size="55" transform="matrix(1 0 0 1 2696.87 273)">Batch Size</text><text fill="#FFFFFF" font-family="Calibri,Calibri_MSFontService,sans-serif" font-weight="400" font-size="55" transform="matrix(1 0 0 1 2609.22 339)">-</text><text fill="#FFFFFF" font-family="Calibri,Calibri_MSFontService,sans-serif" font-weight="400" font-size="55" transform="matrix(1 0 0 1 2712.34 339)">Shuffling</text><text fill="#FFFFFF" font-family="Calibri,Calibri_MSFontService,sans-serif" font-weight="400" font-size="55" transform="matrix(1 0 0 1 2604.91 405)">-</text><text fill="#FFFFFF" font-family="Calibri,Calibri_MSFontService,sans-serif" font-weight="400" font-size="55" transform="matrix(1 0 0 1 2708.03 405)">Sampling</text><path d="M1617 935 1691 639 2904 639 2830 935Z" fill="#785EF0" fill-rule="evenodd"/><text fill="#FFFFFF" font-family="Calibri,Calibri_MSFontService,sans-serif" font-weight="400" font-size="83" transform="matrix(1 0 0 1 1836.05 765)">Define Model, Optimiser, </text><text fill="#FFFFFF" font-family="Calibri,Calibri_MSFontService,sans-serif" font-weight="400" font-size="83" transform="matrix(1 0 0 1 2040.29 864)">and Criterion</text><rect x="1442" y="1087" width="1567" height="285" fill="#FFB000"/><text fill="#FFFFFF" font-family="Calibri,Calibri_MSFontService,sans-serif" font-weight="400" font-size="83" transform="matrix(1 0 0 1 1541.65 1208)">Train Model for Number of Epochs Using </text><text fill="#FFFFFF" font-family="Calibri,Calibri_MSFontService,sans-serif" font-weight="400" font-size="83" transform="matrix(1 0 0 1 1830.4 1307)">Optimiser and Criterion </text><path d="M1718 1708 1921 1524 2530 1524 2733 1708 2530 1892 1921 1892Z" fill="#44AA99" fill-rule="evenodd"/><text fill="#FFFFFF" font-family="Calibri,Calibri_MSFontService,sans-serif" font-weight="400" font-size="83" transform="matrix(1 0 0 1 2117.15 1636)">Assess </text><text fill="#FFFFFF" font-family="Calibri,Calibri_MSFontService,sans-serif" font-weight="400" font-size="83" transform="matrix(1 0 0 1 1955.29 1735)">Performance on </text><text fill="#FFFFFF" font-family="Calibri,Calibri_MSFontService,sans-serif" font-weight="400" font-size="83" transform="matrix(1 0 0 1 1992.53 1834)">Validation Set</text><path d="M2763.98 452 2763.98 550.256 2298 550.256 2303.16 545.1 2303.16 612.419 2292.84 612.419 2292.84 539.944 2758.82 539.944 2753.67 545.1 2753.67 452ZM2313.47 607.262 2298 638.2 2282.53 607.262Z" fill="#648FFF"/><path d="M0 5.15625-82.4986 5.15625-77.3423 0-77.3423 478.221-82.4986 473.065 250.384 473.065 250.384 483.378-87.6548 483.378-87.6548-5.15625 0-5.15625ZM245.227 462.753 276.165 478.221 245.227 493.69Z" fill="#648FFF" transform="matrix(-1 0 0 1 3009.17 1230)"/><path d="M1717.7 1713.03 1361.49 1713.03 1361.49 781.844 1628.22 781.844 1628.22 792.156 1366.65 792.156 1371.8 787 1371.8 1707.87 1366.65 1702.71 1717.7 1702.71ZM1623.06 771.531 1654 787 1623.06 802.469Z" fill="#648FFF"/><path d="M2229.16 934.926 2230.96 1060.95 2220.65 1061.1 2218.84 935.074ZM2241.2 1055.64 2226.18 1086.8 2210.27 1056.09Z" fill="#648FFF"/><path d="M1792.17 2043 2659.83 2043 2715 2098.17 2715 2374 2715 2374 1737 2374 1737 2374 1737 2098.17Z" fill="#882255" fill-rule="evenodd"/><text fill="#FFFFFF" font-family="Calibri,Calibri_MSFontService,sans-serif" font-weight="400" font-size="83" transform="matrix(1 0 0 1 1837.54 2201)">Assess Performance on </text><text fill="#FFFFFF" font-family="Calibri,Calibri_MSFontService,sans-serif" font-weight="400" font-size="83" transform="matrix(1 0 0 1 2027.18 2300)">the Test Set</text><path d="M2231.16 1891.99 2231.38 2018.01 2221.07 2018.03 2220.84 1892.01ZM2241.69 2012.83 2226.27 2043.8 2210.75 2012.89Z" fill="#648FFF"/><text font-family="Arial,Arial_MSFontService,sans-serif" font-style="italic" font-weight="400" font-size="83" transform="matrix(-1.83697e-16 -1 1 -1.83697e-16 1341.47 1598)">Change Parameters</text></g></svg>